<mxfile host="Electron" modified="2024-06-05T20:55:55.988Z" agent="Mozilla/5.0 (X11; Linux x86_64) AppleWebKit/537.36 (KHTML, like Gecko) draw.io/24.4.8 Chrome/124.0.6367.207 Electron/30.0.6 Safari/537.36" etag="MmKMceCYaceRQt9JzGTe" version="24.4.8" type="device">
  <diagram name="Page-1" id="x_NOz3Ztm35Zf04NTr2o">
    <mxGraphModel dx="1114" dy="838" grid="1" gridSize="10" guides="1" tooltips="1" connect="1" arrows="1" fold="1" page="1" pageScale="1" pageWidth="850" pageHeight="1100" math="0" shadow="0">
      <root>
        <mxCell id="0" />
        <mxCell id="1" parent="0" />
        <mxCell id="kgcfjKdvoXN1W8DpmEIH-3" value="Application" style="rounded=0;whiteSpace=wrap;html=1;" vertex="1" parent="1">
          <mxGeometry x="165" y="330" width="120" height="120" as="geometry" />
        </mxCell>
        <mxCell id="kgcfjKdvoXN1W8DpmEIH-4" value="" style="shape=umlActor;verticalLabelPosition=bottom;verticalAlign=top;html=1;outlineConnect=0;" vertex="1" parent="1">
          <mxGeometry x="50" y="370" width="30" height="60" as="geometry" />
        </mxCell>
        <mxCell id="kgcfjKdvoXN1W8DpmEIH-6" value="" style="endArrow=classic;html=1;rounded=0;entryX=0;entryY=0.5;entryDx=0;entryDy=0;" edge="1" parent="1" target="kgcfjKdvoXN1W8DpmEIH-3">
          <mxGeometry width="50" height="50" relative="1" as="geometry">
            <mxPoint x="100" y="390" as="sourcePoint" />
            <mxPoint x="140" y="390" as="targetPoint" />
          </mxGeometry>
        </mxCell>
        <mxCell id="kgcfjKdvoXN1W8DpmEIH-7" value="Serveur Central&lt;div&gt;API&lt;/div&gt;" style="rounded=0;whiteSpace=wrap;html=1;" vertex="1" parent="1">
          <mxGeometry x="165" y="110" width="120" height="120" as="geometry" />
        </mxCell>
        <mxCell id="kgcfjKdvoXN1W8DpmEIH-9" value="Récupération&lt;div&gt;des données&lt;/div&gt;&lt;div&gt;des cameras&lt;/div&gt;" style="endArrow=classic;html=1;rounded=0;exitX=0.5;exitY=1;exitDx=0;exitDy=0;entryX=0.5;entryY=0;entryDx=0;entryDy=0;fillColor=#f8cecc;strokeColor=#b85450;startArrow=classic;startFill=1;" edge="1" parent="1" source="kgcfjKdvoXN1W8DpmEIH-7" target="kgcfjKdvoXN1W8DpmEIH-3">
          <mxGeometry width="50" height="50" relative="1" as="geometry">
            <mxPoint x="220" y="540" as="sourcePoint" />
            <mxPoint x="260" y="330" as="targetPoint" />
            <Array as="points" />
          </mxGeometry>
        </mxCell>
        <mxCell id="kgcfjKdvoXN1W8DpmEIH-10" value="srs_face-recognition" style="rounded=0;whiteSpace=wrap;html=1;" vertex="1" parent="1">
          <mxGeometry x="400" y="330" width="120" height="120" as="geometry" />
        </mxCell>
        <mxCell id="kgcfjKdvoXN1W8DpmEIH-11" value="" style="whiteSpace=wrap;html=1;aspect=fixed;" vertex="1" parent="1">
          <mxGeometry x="410" y="84" width="120" height="120" as="geometry" />
        </mxCell>
        <mxCell id="kgcfjKdvoXN1W8DpmEIH-12" value="" style="shape=mxgraph.signs.tech.camera_1;html=1;pointerEvents=1;fillColor=#000000;strokeColor=none;verticalLabelPosition=bottom;verticalAlign=top;align=center;rotation=-45;" vertex="1" parent="1">
          <mxGeometry x="370" y="204" width="40" height="34" as="geometry" />
        </mxCell>
        <mxCell id="kgcfjKdvoXN1W8DpmEIH-13" value="" style="shape=mxgraph.signs.tech.camera_1;html=1;pointerEvents=1;fillColor=#000000;strokeColor=none;verticalLabelPosition=bottom;verticalAlign=top;align=center;rotation=-135;" vertex="1" parent="1">
          <mxGeometry x="530" y="204" width="40" height="34" as="geometry" />
        </mxCell>
        <mxCell id="kgcfjKdvoXN1W8DpmEIH-14" value="" style="shape=mxgraph.signs.tech.camera_1;html=1;pointerEvents=1;fillColor=#000000;strokeColor=none;verticalLabelPosition=bottom;verticalAlign=top;align=center;rotation=-225;" vertex="1" parent="1">
          <mxGeometry x="530" y="50" width="40" height="34" as="geometry" />
        </mxCell>
        <mxCell id="kgcfjKdvoXN1W8DpmEIH-15" value="" style="shape=mxgraph.signs.tech.camera_1;html=1;pointerEvents=1;fillColor=#000000;strokeColor=none;verticalLabelPosition=bottom;verticalAlign=top;align=center;rotation=45;" vertex="1" parent="1">
          <mxGeometry x="370" y="50" width="40" height="34" as="geometry" />
        </mxCell>
        <mxCell id="kgcfjKdvoXN1W8DpmEIH-16" value="Données faciales" style="endArrow=classic;html=1;rounded=0;exitX=0;exitY=0;exitDx=0;exitDy=0;entryX=1;entryY=1;entryDx=0;entryDy=0;startArrow=classic;startFill=1;fillColor=#f8cecc;strokeColor=#b85450;" edge="1" parent="1" source="kgcfjKdvoXN1W8DpmEIH-10" target="kgcfjKdvoXN1W8DpmEIH-7">
          <mxGeometry width="50" height="50" relative="1" as="geometry">
            <mxPoint x="290" y="630" as="sourcePoint" />
            <mxPoint x="340" y="580" as="targetPoint" />
            <Array as="points">
              <mxPoint x="400" y="310" />
              <mxPoint x="285" y="310" />
            </Array>
          </mxGeometry>
        </mxCell>
        <mxCell id="kgcfjKdvoXN1W8DpmEIH-17" value="" style="endArrow=classic;startArrow=classic;html=1;rounded=0;entryX=0;entryY=0.5;entryDx=0;entryDy=0;entryPerimeter=0;exitX=0.5;exitY=0;exitDx=0;exitDy=0;fillColor=#f8cecc;strokeColor=#b85450;" edge="1" parent="1" source="kgcfjKdvoXN1W8DpmEIH-10" target="kgcfjKdvoXN1W8DpmEIH-14">
          <mxGeometry width="50" height="50" relative="1" as="geometry">
            <mxPoint x="430" y="330" as="sourcePoint" />
            <mxPoint x="480" y="280" as="targetPoint" />
            <Array as="points">
              <mxPoint x="460" y="270" />
              <mxPoint x="600" y="270" />
              <mxPoint x="600" y="53" />
            </Array>
          </mxGeometry>
        </mxCell>
        <mxCell id="kgcfjKdvoXN1W8DpmEIH-18" value="" style="endArrow=classic;html=1;rounded=0;entryX=0;entryY=0.5;entryDx=0;entryDy=0;entryPerimeter=0;fillColor=#f8cecc;strokeColor=#b85450;" edge="1" parent="1" target="kgcfjKdvoXN1W8DpmEIH-15">
          <mxGeometry width="50" height="50" relative="1" as="geometry">
            <mxPoint x="470" y="270" as="sourcePoint" />
            <mxPoint x="310" y="80" as="targetPoint" />
            <Array as="points">
              <mxPoint x="340" y="270" />
              <mxPoint x="340" y="53" />
            </Array>
          </mxGeometry>
        </mxCell>
        <mxCell id="kgcfjKdvoXN1W8DpmEIH-19" value="" style="endArrow=classic;html=1;rounded=0;entryX=0;entryY=0.5;entryDx=0;entryDy=0;entryPerimeter=0;fillColor=#f8cecc;strokeColor=#b85450;" edge="1" parent="1" target="kgcfjKdvoXN1W8DpmEIH-13">
          <mxGeometry width="50" height="50" relative="1" as="geometry">
            <mxPoint x="600" y="270" as="sourcePoint" />
            <mxPoint x="750" y="510" as="targetPoint" />
          </mxGeometry>
        </mxCell>
        <mxCell id="kgcfjKdvoXN1W8DpmEIH-20" value="" style="endArrow=classic;html=1;rounded=0;entryX=0;entryY=0.5;entryDx=0;entryDy=0;entryPerimeter=0;fillColor=#f8cecc;strokeColor=#b85450;" edge="1" parent="1" target="kgcfjKdvoXN1W8DpmEIH-12">
          <mxGeometry width="50" height="50" relative="1" as="geometry">
            <mxPoint x="340" y="270" as="sourcePoint" />
            <mxPoint x="620" y="540" as="targetPoint" />
          </mxGeometry>
        </mxCell>
        <mxCell id="kgcfjKdvoXN1W8DpmEIH-21" value="Lien vers&lt;div&gt;les camera&lt;/div&gt;&lt;div&gt;+&lt;/div&gt;&lt;div&gt;Lien vers l&#39;api&lt;/div&gt;&lt;div&gt;des données&lt;/div&gt;&lt;div&gt;des utilisateurs&lt;/div&gt;" style="endArrow=classic;html=1;rounded=0;entryX=0;entryY=0.5;entryDx=0;entryDy=0;exitX=1;exitY=0.5;exitDx=0;exitDy=0;fillColor=#dae8fc;strokeColor=#6c8ebf;" edge="1" parent="1" source="kgcfjKdvoXN1W8DpmEIH-3" target="kgcfjKdvoXN1W8DpmEIH-10">
          <mxGeometry width="50" height="50" relative="1" as="geometry">
            <mxPoint x="250" y="610" as="sourcePoint" />
            <mxPoint x="300" y="560" as="targetPoint" />
          </mxGeometry>
        </mxCell>
        <mxCell id="kgcfjKdvoXN1W8DpmEIH-22" value="" style="ellipse;whiteSpace=wrap;html=1;aspect=fixed;" vertex="1" parent="1">
          <mxGeometry x="480" y="131.5" width="25" height="25" as="geometry" />
        </mxCell>
      </root>
    </mxGraphModel>
  </diagram>
</mxfile>
